HIERARCHY
ROOT Hips
{
	OFFSET 0.000000 0.000000 0.000000
	CHANNELS 6 Xposition Yposition Zposition Xrotation Yrotation Zrotation
	JOINT LeftUpLeg_virtual
	{
		OFFSET 0.000000 0.000000 0.000000
		CHANNELS 3 Xrotation Yrotation Zrotation
		JOINT LeftUpLeg
		{
			OFFSET 11.394100 -6.187798 -0.413800
			CHANNELS 3 Xrotation Yrotation Zrotation
			JOINT LeftLeg
			{
				OFFSET 0.430247 -32.302673 3.732800
				CHANNELS 3 Xrotation Yrotation Zrotation
				JOINT LeftFoot
				{
					OFFSET -0.430247 -48.264931 -6.423300
					CHANNELS 3 Xrotation Yrotation Zrotation
					JOINT LeftToeBase
					{
						OFFSET 4.230900 -16.068199 23.438400
						CHANNELS 3 Xrotation Yrotation Zrotation
						JOINT LeftToe_End
						{
							OFFSET 4.510700 0.695400 19.974600
							CHANNELS 3 Xrotation Yrotation Zrotation
							End Site
							{
								OFFSET 0 0 0
							}
						}
					}
				}
			}
		}
	}
	JOINT RightUpLeg_virtual
	{
		OFFSET 0.000000 0.000000 0.000000
		CHANNELS 3 Xrotation Yrotation Zrotation
		JOINT RightUpLeg
		{
			OFFSET -11.333700 -6.187798 -0.413800
			CHANNELS 3 Xrotation Yrotation Zrotation
			JOINT RightLeg
			{
				OFFSET -0.430392 -32.302628 3.733000
				CHANNELS 3 Xrotation Yrotation Zrotation
				JOINT RightFoot
				{
					OFFSET 0.430392 -48.264973 -6.423500
					CHANNELS 3 Xrotation Yrotation Zrotation
					JOINT RightToeBase
					{
						OFFSET -4.230900 -16.068199 23.438400
						CHANNELS 3 Xrotation Yrotation Zrotation
						JOINT RightToe_End
						{
							OFFSET -4.510700 0.695400 19.974600
							CHANNELS 3 Xrotation Yrotation Zrotation
							End Site
							{
								OFFSET 0 0 0
							}
						}
					}
				}
			}
		}
	}
	JOINT Spine_virtual
	{
		OFFSET 0.000000 0.000000 0.000000
		CHANNELS 3 Xrotation Yrotation Zrotation
		JOINT Spine
		{
			OFFSET -0.002400 12.777504 0.315300
			CHANNELS 3 Xrotation Yrotation Zrotation
			JOINT Spine1
			{
				OFFSET -0.002067 5.816869 0.032633
				CHANNELS 3 Xrotation Yrotation Zrotation
				JOINT Spine1_split
				{
					OFFSET -0.002067 5.816869 0.032633
					CHANNELS 3 Xrotation Yrotation Zrotation
					JOINT Spine2
					{
						OFFSET -0.002067 5.816869 0.032633
						CHANNELS 3 Xrotation Yrotation Zrotation
						JOINT Neck_virtual
						{
							OFFSET 0.000000 0.000000 0.000000
							CHANNELS 3 Xrotation Yrotation Zrotation
							JOINT Neck
							{
								OFFSET -0.003700 21.199493 -0.826900
								CHANNELS 3 Xrotation Yrotation Zrotation
								JOINT Head
								{
									OFFSET 0.000000 20.442200 4.834800
									CHANNELS 3 Xrotation Yrotation Zrotation
									JOINT HeadTop_End
									{
										OFFSET 0.000000 34.668396 4.968400
										CHANNELS 3 Xrotation Yrotation Zrotation
										End Site
										{
											OFFSET 0 0 0
										}
									}
								}
							}
						}
						JOINT LeftShoulder_virtual
						{
							OFFSET 0.000000 0.000000 0.000000
							CHANNELS 3 Xrotation Yrotation Zrotation
							JOINT LeftShoulder
							{
								OFFSET 3.288150 8.794197 -1.372250
								CHANNELS 3 Xrotation Yrotation Zrotation
								JOINT LeftShoulder_split
								{
									OFFSET 3.288150 8.794197 -1.372250
									CHANNELS 3 Xrotation Yrotation Zrotation
									JOINT LeftArm
									{
										OFFSET 11.953299 -2.279007 -0.146200
										CHANNELS 3 Xrotation Yrotation Zrotation
										JOINT LeftForeArm
										{
											OFFSET 18.448900 0.000000 0.000000
											CHANNELS 3 Xrotation Yrotation Zrotation
											JOINT LeftHand
											{
												OFFSET 29.527798 0.000000 0.000000
												CHANNELS 3 Xrotation Yrotation Zrotation
												End Site
												{
													OFFSET 0 0 0
												}
											}
										}
									}
								}
							}
						}
						JOINT RightShoulder_virtual
						{
							OFFSET 0.000000 0.000000 0.000000
							CHANNELS 3 Xrotation Yrotation Zrotation
							JOINT RightShoulder
							{
								OFFSET -3.249400 8.794197 -1.372250
								CHANNELS 3 Xrotation Yrotation Zrotation
								JOINT RightShoulder_split
								{
									OFFSET -3.249400 8.794197 -1.372250
									CHANNELS 3 Xrotation Yrotation Zrotation
									JOINT RightArm
									{
										OFFSET -11.953299 -2.279007 -0.146200
										CHANNELS 3 Xrotation Yrotation Zrotation
										JOINT RightForeArm
										{
											OFFSET -18.448900 0.000000 0.000000
											CHANNELS 3 Xrotation Yrotation Zrotation
											JOINT RightHand
											{
												OFFSET -29.527802 0.000000 0.000000
												CHANNELS 3 Xrotation Yrotation Zrotation
												End Site
												{
													OFFSET 0 0 0
												}
											}
										}
									}
								}
							}
						}
					}
				}
			}
		}
	}
}
MOTION
Frames: 5
Frame Time: 0.03333333
-0.335803 99.877731 -4.415836 0.000000 0.000000 0.000000 3.878179 6.880375 -0.799975 -16.731318 8.009491 6.813991 24.629278 2.209748 0.045502 -12.834388 1.169841 -5.375017 -1.135689 0.659040 1.029674 0.000000 0.000000 0.000000 4.159815 5.960233 -1.201075 -13.682956 -5.603852 -7.374277 20.026765 -7.621677 4.180469 -6.290276 -16.108275 0.210420 -2.065401 -0.390670 -2.252133 0.000000 0.000000 0.000000 5.257372 3.390398 -2.064475 18.241222 -2.399035 -0.036155 0.199124 -0.097715 1.106484 1.151398 -0.605679 0.133891 0.000000 0.000000 0.000000 1.227718 -0.501137 0.443132 17.854132 2.978075 -0.698282 11.225854 2.290434 2.123857 0.000000 0.000000 0.000000 1.043847 0.038341 -0.064486 12.420584 -36.819439 -0.509448 1.936241 -1.587860 -3.233737 11.929004 17.527466 -47.109410 -1.312607 -36.932493 0.079081 0.000000 0.000000 0.000000 0.332096 -0.207329 0.703135 0.900134 -1.765237 7.458969 1.535269 6.176960 -1.423552 -0.260499 17.066869 36.655815 0.633975 15.295030 1.370631 0.000000 0.000000 0.000000 
-0.274730 100.021271 -4.186367 0.000000 0.000000 0.000000 3.683569 6.920316 -0.700105 -16.279693 8.176256 6.683152 24.205494 2.249838 0.100941 -12.807343 1.163359 -5.200208 -1.089316 0.669848 1.056226 0.000000 0.000000 0.000000 4.006306 5.966621 -1.108295 -13.330215 -5.539943 -7.419675 19.828135 -7.483885 4.115333 -6.070845 -16.156787 0.282124 -1.999422 -0.409592 -2.237603 0.000000 0.000000 0.000000 5.016144 3.560543 -1.919766 17.642555 -2.430748 -0.028799 0.247215 -0.127332 1.018206 1.204374 -0.664688 0.095565 0.000000 0.000000 0.000000 1.255075 -0.547044 0.346716 17.823131 2.227588 -0.418746 11.270984 -0.225505 3.266080 0.000000 0.000000 0.000000 1.119826 -0.023595 -0.143176 12.133477 -36.548551 -0.491324 1.943247 -1.282809 -3.050152 13.460239 18.205541 -47.385988 -1.352861 -36.554817 0.011489 0.000000 0.000000 0.000000 0.381113 -0.254679 0.659837 0.620657 -1.945408 7.050788 1.740886 6.252792 -1.273984 0.928023 16.319528 36.715422 0.697050 15.241304 1.257934 0.000000 0.000000 0.000000 
-0.232574 100.103897 -4.051277 0.000000 0.000000 0.000000 3.475714 6.920960 -0.643679 -15.918714 8.259381 6.547442 23.864917 2.212790 0.188141 -12.809886 1.134920 -5.026826 -1.097533 0.674149 1.055238 0.000000 0.000000 0.000000 3.834027 5.931559 -1.054687 -13.034021 -5.491966 -7.425349 19.739870 -7.361270 4.083427 -5.921999 -16.201943 0.325137 -1.975678 -0.431720 -2.226738 0.000000 0.000000 0.000000 4.775959 3.707963 -1.824332 17.137395 -2.386498 -0.014471 0.335749 -0.154799 1.001228 1.269040 -0.677201 0.067409 0.000000 0.000000 0.000000 1.271583 -0.579670 0.309209 17.683585 1.569631 -0.175865 11.249836 -2.314579 4.195044 0.000000 0.000000 0.000000 1.229110 -0.085114 -0.143294 11.852664 -36.064348 -0.454328 2.016983 -0.944572 -2.876745 14.475893 18.431849 -47.937338 -1.466303 -36.333338 -0.102959 0.000000 0.000000 0.000000 0.453389 -0.297988 0.669987 0.440201 -2.129719 6.795054 1.974343 6.471827 -1.173666 1.179135 15.743323 37.342099 0.684895 15.025926 1.192859 0.000000 0.000000 0.000000 
-0.203520 100.115547 -3.978271 0.000000 0.000000 0.000000 3.249017 6.910460 -0.612243 -15.656778 8.208881 6.406927 23.683263 2.080801 0.302442 -12.782833 1.079177 -4.883658 -1.101693 0.673572 1.015374 0.000000 0.000000 0.000000 3.620937 5.897463 -1.021409 -12.777617 -5.449905 -7.406489 19.772860 -7.274843 4.078201 -5.865841 -16.268476 0.331290 -1.993198 -0.456174 -2.227874 0.000000 0.000000 0.000000 4.524868 3.852710 -1.761504 16.740252 -2.272548 0.005276 0.444850 -0.171685 1.046155 1.283302 -0.626349 0.000354 0.000000 0.000000 0.000000 1.262662 -0.593336 0.319208 17.486232 1.023511 -0.006127 11.214186 -3.984441 4.947964 0.000000 0.000000 0.000000 1.342590 -0.138250 -0.087738 11.583647 -35.471344 -0.444902 2.028493 -0.560028 -2.751713 14.991181 18.219227 -48.608978 -1.675619 -36.013019 -0.263352 0.000000 0.000000 0.000000 0.523972 -0.325256 0.720668 0.370128 -2.292186 6.775230 2.193287 6.693146 -1.073396 0.631554 15.385081 38.480213 0.632967 14.595862 1.142407 0.000000 0.000000 0.000000 
-0.182841 100.070267 -3.938980 0.000000 0.000000 0.000000 2.998252 6.921213 -0.578242 -15.442672 8.015532 6.242428 23.633768 1.890308 0.451935 -12.735860 1.037539 -4.752924 -1.033593 0.669809 0.920430 0.000000 0.000000 0.000000 3.363315 5.911360 -0.986407 -12.541798 -5.424792 -7.394692 19.909790 -7.228319 4.085335 -5.905099 -16.373101 0.316846 -2.027012 -0.479283 -2.245056 0.000000 0.000000 0.000000 4.258013 4.032855 -1.702742 16.464113 -2.096759 0.024152 0.555038 -0.175093 1.128955 1.242306 -0.577658 -0.107184 0.000000 0.000000 0.000000 1.214916 -0.585398 0.363722 17.275720 0.612835 0.067162 11.207892 -5.278751 5.553131 0.000000 0.000000 0.000000 1.429140 -0.172201 -0.005890 11.326787 -34.864164 -0.515855 1.967494 -0.178989 -2.703941 15.074321 17.496085 -49.310237 -1.947390 -35.554994 -0.439949 0.000000 0.000000 0.000000 0.579584 -0.317294 0.791791 0.412976 -2.356460 7.078801 2.403441 6.866841 -1.037269 -0.481565 15.249587 40.080803 0.593214 13.949992 1.075148 0.000000 0.000000 0.000000 
